<?xml version="1.0" ?>
<svg xmlns="http://www.w3.org/2000/svg" version="1.1" width="230" height="230">
	<g fill="none" stroke-linecap="butt">
		<path stroke="#000000" d="M 0.00 32.00 L 0.00 32.00 C 0.00 32.00 1.12 29.52 2.50 26.50 C 3.88 23.48 6.35 18.98 8.00 16.50 C 9.65 14.02 12.57 10.65 14.50 9.00 C 16.43 7.35 20.02 4.65 27.00 0.00" vector-effect="non-scaling-stroke"/>
		<path stroke="#FBFBFB" d="M 230.00 26.00 L 230.00 26.00 C 230.00 26.00 228.65 23.75 227.00 21.00 C 225.35 18.25 222.20 13.98 220.00 11.50 C 217.80 9.02 213.75 5.42 206.00 0.00" vector-effect="non-scaling-stroke"/>
		<path stroke="#FBFBFB" d="M 26.50 71.50 C 29.05 70.65 32.74 70.22 35.00 70.50 C 37.20 70.78 41.02 71.90 43.50 73.00 C 46.84 74.49 48.64 76.16 50.50 79.50 C 52.07 82.32 53.19 86.24 54.00 96.00 L 41.00 96.00 L 40.50 91.50 C 40.23 89.03 39.33 86.33 38.50 85.50 C 37.67 84.67 35.88 83.78 34.50 83.50 C 32.72 83.14 31.28 83.72 29.50 85.50 C 27.67 87.33 27.00 89.07 27.00 92.00 C 27.00 94.20 27.68 97.35 28.50 99.00 C 29.32 100.65 34.27 106.50 39.50 112.00 C 44.93 117.71 49.86 123.93 51.00 126.50 C 52.10 128.97 53.23 133.25 53.50 136.00 C 53.77 138.75 53.55 143.25 53.00 146.00 C 52.25 149.75 51.00 152.00 48.00 155.00 C 45.56 157.44 42.44 159.39 40.00 160.00 C 37.80 160.55 33.75 160.78 31.00 160.50 C 28.25 160.22 24.43 159.10 22.50 158.00 C 20.57 156.90 17.88 154.65 16.50 153.00 C 14.90 151.08 13.64 147.83 13.00 144.00 C 12.45 140.70 12.22 137.10 12.50 136.00 C 12.93 134.28 13.83 134.00 25.00 134.00 L 26.00 139.50 C 26.55 142.53 27.68 145.68 28.50 146.50 C 29.32 147.32 31.35 148.00 33.00 148.00 C 34.67 148.00 36.89 147.11 38.00 146.00 C 39.41 144.59 40.00 142.67 40.00 139.50 C 40.00 136.67 39.26 133.89 38.00 132.00 C 36.90 130.35 31.73 124.50 26.50 119.00 C 19.14 111.25 16.55 107.76 15.00 103.50 C 13.90 100.47 13.00 95.97 13.00 93.50 C 13.00 91.03 13.45 86.97 14.00 84.50 C 14.65 81.56 16.21 78.79 18.50 76.50 C 20.43 74.58 24.02 72.33 26.50 71.50" vector-effect="non-scaling-stroke"/>
		<path stroke="#FDFDFD" d="M 62.00 72.00 L 71.50 72.00 C 80.83 72.00 81.01 72.04 81.50 74.50 C 81.78 75.88 83.80 88.92 86.00 103.50 C 88.20 118.08 90.45 130.45 91.00 131.00 C 91.67 131.67 93.33 122.00 100.00 72.00 L 120.00 72.00 L 120.00 160.00 L 107.00 160.00 L 107.00 98.00 L 104.00 116.00 C 102.35 125.90 100.33 138.72 99.50 144.50 C 98.67 150.28 97.78 156.12 97.50 157.50 C 97.03 159.86 96.63 160.00 90.50 160.00 C 86.92 160.00 84.00 159.78 84.00 159.50 C 84.00 159.22 81.97 146.85 79.50 132.00 C 77.03 117.15 74.78 103.88 74.50 102.50 C 74.22 101.12 74.00 113.50 74.00 160.00 L 68.00 160.00 C 64.70 160.00 62.00 159.78 62.00 159.50 C 62.00 159.22 62.00 139.43 62.00 72.00" vector-effect="non-scaling-stroke"/>
		<path stroke="#FDFDFD" d="M 130.00 72.00 L 144.00 72.00 C 157.20 72.00 158.23 72.14 162.00 74.50 C 164.20 75.88 167.12 78.80 168.50 81.00 C 170.75 84.61 171.00 86.03 171.00 95.50 C 171.00 104.00 170.62 106.76 169.00 110.00 C 167.90 112.20 166.10 114.67 165.00 115.50 C 163.02 116.98 163.03 117.02 165.50 119.00 C 166.88 120.10 168.68 122.58 169.50 124.50 C 170.54 126.93 171.00 131.50 171.00 139.50 C 171.00 145.82 171.45 153.03 173.00 160.00 L 159.00 159.00 L 158.00 144.00 C 157.07 130.00 156.83 128.83 154.50 126.50 C 152.67 124.67 150.93 124.00 144.00 124.00 L 144.00 160.00 L 137.00 160.00 C 133.15 160.00 130.00 159.78 130.00 159.50 C 130.00 159.22 130.00 139.43 130.00 72.00" vector-effect="non-scaling-stroke"/>
		<path stroke="#FDFDFD" d="M 176.00 72.00 L 220.00 72.00 L 220.00 84.00 L 205.00 84.00 L 205.00 160.00 L 191.00 160.00 L 190.00 85.00 L 183.00 84.50 C 179.15 84.22 176.00 83.78 176.00 83.50 C 176.00 83.22 176.00 80.53 176.00 72.00" vector-effect="non-scaling-stroke"/>
		<path stroke="#010101" d="M 144.00 84.00 L 149.00 84.50 C 151.75 84.78 154.68 85.67 155.50 86.50 C 156.62 87.62 157.00 90.39 157.00 97.50 C 157.00 104.39 156.59 107.55 155.50 109.00 C 154.35 110.53 152.83 111.00 149.00 111.00 C 146.25 111.00 144.00 110.78 144.00 110.50 C 144.00 110.22 144.00 104.15 144.00 84.00" vector-effect="non-scaling-stroke"/>
		<path stroke="#F4F4F4" d="M 0.00 195.00 L 0.00 195.00 C 0.00 195.00 0.22 195.22 0.50 195.50 C 0.78 195.78 1.90 198.03 5.00 205.00" vector-effect="non-scaling-stroke"/>
		<path stroke="#F4F4F4" d="M 29.00 227.00 L 29.00 227.00 C 29.00 227.00 29.45 227.00 30.00 227.00 C 30.55 227.00 32.58 227.68 38.00 230.00" vector-effect="non-scaling-stroke"/>
		<path stroke="#EEEEEE" d="M 195.00 230.00 L 195.00 230.00 C 195.00 230.00 197.70 228.88 201.00 227.50 C 204.30 226.12 209.03 223.65 211.50 222.00 C 213.97 220.35 217.80 216.97 220.00 214.50 C 222.20 212.03 225.35 207.97 230.00 201.00" vector-effect="non-scaling-stroke"/>
		<path stroke="#DDDDDD" d="M 5.00 205.00 L 5.00 205.00 C 5.00 205.00 6.12 206.80 7.50 209.00 C 8.88 211.20 12.25 215.03 15.00 217.50 C 17.75 219.97 22.02 223.12 29.00 227.00" vector-effect="non-scaling-stroke"/>
		<path stroke="#DDDDDD" d="M 29.00 227.00 L 29.00 227.00 C 29.00 227.00 27.88 226.55 26.50 226.00 C 25.12 225.45 22.65 225.00 21.00 225.00 C 19.35 225.00 16.20 223.88 14.00 222.50 C 10.78 220.49 10.00 219.42 10.00 217.00 C 10.00 214.67 9.56 214.00 8.00 214.00 C 6.90 214.00 5.55 213.32 5.00 212.50 C 4.45 211.68 4.22 209.65 5.00 205.00" vector-effect="non-scaling-stroke"/>
	</g>
	<path fill="#FAFAFA" d="M 27.00 0.00 C 20.02 4.65 16.43 7.35 14.50 9.00 C 12.57 10.65 9.65 14.02 8.00 16.50 C 6.35 18.98 3.88 23.48 2.50 26.50 C 1.12 29.52 0.00 32.00 0.00 32.00 L 0.00 32.00 C 0.00 7.97 0.00 0.78 0.00 0.50 C 0.00 0.22 6.07 0.00 13.50 0.00 C 20.93 0.00 27.00 0.00 27.00 0.00 L 27.00 0.00 Z" fill-rule="evenodd"/>
	<path fill="#000000" d="M 27.00 0.00 C 164.95 0.00 205.22 0.00 205.50 0.00 C 205.78 0.00 206.00 0.00 206.00 0.00 L 206.00 0.00 C 213.75 5.42 217.80 9.02 220.00 11.50 C 222.20 13.98 225.35 18.25 227.00 21.00 C 228.65 23.75 230.00 26.00 230.00 26.00 L 230.00 26.00 C 230.00 160.85 230.00 200.22 230.00 200.50 C 230.00 200.78 230.00 201.00 230.00 201.00 L 230.00 201.00 C 225.35 207.97 222.20 212.03 220.00 214.50 C 217.80 216.97 213.97 220.35 211.50 222.00 C 209.03 223.65 204.30 226.12 201.00 227.50 C 197.70 228.88 195.00 230.00 195.00 230.00 L 195.00 230.00 C 74.10 230.00 38.77 230.00 38.50 230.00 C 38.23 230.00 38.00 230.00 38.00 230.00 L 38.00 230.00 C 32.58 227.68 30.55 227.00 30.00 227.00 C 29.45 227.00 29.00 227.00 29.00 227.00 L 29.00 227.00 C 22.02 223.12 17.75 219.97 15.00 217.50 C 12.25 215.03 8.88 211.20 7.50 209.00 C 6.12 206.80 5.00 205.00 5.00 205.00 L 5.00 205.00 C 1.90 198.03 0.78 195.78 0.50 195.50 C 0.22 195.22 0.00 195.00 0.00 195.00 L 0.00 195.00 C 0.00 69.45 0.00 32.77 0.00 32.50 C 0.00 32.23 0.00 32.00 0.00 32.00 L 0.00 32.00 L 0.00 32.00 C 0.00 32.00 1.12 29.52 2.50 26.50 C 3.88 23.48 6.35 18.98 8.00 16.50 C 9.65 14.02 12.57 10.65 14.50 9.00 C 16.43 7.35 20.02 4.65 27.00 0.00 Z M 26.50 71.50 C 24.02 72.33 20.43 74.58 18.50 76.50 C 16.21 78.79 14.65 81.56 14.00 84.50 C 13.45 86.97 13.00 91.03 13.00 93.50 C 13.00 95.97 13.90 100.47 15.00 103.50 C 16.55 107.76 19.14 111.25 26.50 119.00 C 31.73 124.50 36.90 130.35 38.00 132.00 C 39.26 133.89 40.00 136.67 40.00 139.50 C 40.00 142.67 39.41 144.59 38.00 146.00 C 36.89 147.11 34.67 148.00 33.00 148.00 C 31.35 148.00 29.32 147.32 28.50 146.50 C 27.68 145.68 26.55 142.53 26.00 139.50 L 25.00 134.00 C 13.83 134.00 12.93 134.28 12.50 136.00 C 12.22 137.10 12.45 140.70 13.00 144.00 C 13.64 147.83 14.90 151.08 16.50 153.00 C 17.88 154.65 20.57 156.90 22.50 158.00 C 24.43 159.10 28.25 160.22 31.00 160.50 C 33.75 160.78 37.80 160.55 40.00 160.00 C 42.44 159.39 45.56 157.44 48.00 155.00 C 51.00 152.00 52.25 149.75 53.00 146.00 C 53.55 143.25 53.77 138.75 53.50 136.00 C 53.23 133.25 52.10 128.97 51.00 126.50 C 49.86 123.93 44.93 117.71 39.50 112.00 C 34.27 106.50 29.32 100.65 28.50 99.00 C 27.68 97.35 27.00 94.20 27.00 92.00 C 27.00 89.07 27.67 87.33 29.50 85.50 C 31.28 83.72 32.72 83.14 34.50 83.50 C 35.88 83.78 37.67 84.67 38.50 85.50 C 39.33 86.33 40.23 89.03 40.50 91.50 L 41.00 96.00 L 54.00 96.00 C 53.19 86.24 52.07 82.32 50.50 79.50 C 48.64 76.16 46.84 74.49 43.50 73.00 C 41.02 71.90 37.20 70.78 35.00 70.50 C 32.74 70.22 29.05 70.65 26.50 71.50 Z M 62.00 72.00 C 62.00 139.43 62.00 159.22 62.00 159.50 C 62.00 159.78 64.70 160.00 68.00 160.00 L 74.00 160.00 C 74.00 113.50 74.22 101.12 74.50 102.50 C 74.78 103.88 77.03 117.15 79.50 132.00 C 81.97 146.85 84.00 159.22 84.00 159.50 C 84.00 159.78 86.92 160.00 90.50 160.00 C 96.63 160.00 97.03 159.86 97.50 157.50 C 97.78 156.12 98.67 150.28 99.50 144.50 C 100.33 138.72 102.35 125.90 104.00 116.00 L 107.00 98.00 L 107.00 160.00 L 120.00 160.00 L 120.00 72.00 L 100.00 72.00 C 93.33 122.00 91.67 131.67 91.00 131.00 C 90.45 130.45 88.20 118.08 86.00 103.50 C 83.80 88.92 81.78 75.88 81.50 74.50 C 81.01 72.04 80.83 72.00 71.50 72.00 L 62.00 72.00 Z M 130.00 72.00 C 130.00 139.43 130.00 159.22 130.00 159.50 C 130.00 159.78 133.15 160.00 137.00 160.00 L 144.00 160.00 L 144.00 124.00 C 150.93 124.00 152.67 124.67 154.50 126.50 C 156.83 128.83 157.07 130.00 158.00 144.00 L 159.00 159.00 L 173.00 160.00 C 171.45 153.03 171.00 145.82 171.00 139.50 C 171.00 131.50 170.54 126.93 169.50 124.50 C 168.68 122.58 166.88 120.10 165.50 119.00 C 163.03 117.02 163.02 116.98 165.00 115.50 C 166.10 114.67 167.90 112.20 169.00 110.00 C 170.62 106.76 171.00 104.00 171.00 95.50 C 171.00 86.03 170.75 84.61 168.50 81.00 C 167.12 78.80 164.20 75.88 162.00 74.50 C 158.23 72.14 157.20 72.00 144.00 72.00 L 130.00 72.00 Z M 176.00 72.00 C 176.00 80.53 176.00 83.22 176.00 83.50 C 176.00 83.78 179.15 84.22 183.00 84.50 L 190.00 85.00 L 191.00 160.00 L 205.00 160.00 L 205.00 84.00 L 220.00 84.00 L 220.00 72.00 L 176.00 72.00 Z" fill-rule="evenodd"/>
	<path fill="#FBFBFB" d="M 206.00 0.00 C 223.82 0.00 229.22 0.00 229.50 0.00 C 229.78 0.00 230.00 5.85 230.00 13.00 C 230.00 20.15 230.00 26.00 230.00 26.00 L 230.00 26.00 L 230.00 26.00 C 230.00 26.00 228.65 23.75 227.00 21.00 C 225.35 18.25 222.20 13.98 220.00 11.50 C 217.80 9.02 213.75 5.42 206.00 0.00 Z" fill-rule="evenodd"/>
	<path fill="#FBFBFB" d="M 26.50 71.50 C 29.05 70.65 32.74 70.22 35.00 70.50 C 37.20 70.78 41.02 71.90 43.50 73.00 C 46.84 74.49 48.64 76.16 50.50 79.50 C 52.07 82.32 53.19 86.24 54.00 96.00 L 41.00 96.00 L 40.50 91.50 C 40.23 89.03 39.33 86.33 38.50 85.50 C 37.67 84.67 35.88 83.78 34.50 83.50 C 32.72 83.14 31.28 83.72 29.50 85.50 C 27.67 87.33 27.00 89.07 27.00 92.00 C 27.00 94.20 27.68 97.35 28.50 99.00 C 29.32 100.65 34.27 106.50 39.50 112.00 C 44.93 117.71 49.86 123.93 51.00 126.50 C 52.10 128.97 53.23 133.25 53.50 136.00 C 53.77 138.75 53.55 143.25 53.00 146.00 C 52.25 149.75 51.00 152.00 48.00 155.00 C 45.56 157.44 42.44 159.39 40.00 160.00 C 37.80 160.55 33.75 160.78 31.00 160.50 C 28.25 160.22 24.43 159.10 22.50 158.00 C 20.57 156.90 17.88 154.65 16.50 153.00 C 14.90 151.08 13.64 147.83 13.00 144.00 C 12.45 140.70 12.22 137.10 12.50 136.00 C 12.93 134.28 13.83 134.00 25.00 134.00 L 26.00 139.50 C 26.55 142.53 27.68 145.68 28.50 146.50 C 29.32 147.32 31.35 148.00 33.00 148.00 C 34.67 148.00 36.89 147.11 38.00 146.00 C 39.41 144.59 40.00 142.67 40.00 139.50 C 40.00 136.67 39.26 133.89 38.00 132.00 C 36.90 130.35 31.73 124.50 26.50 119.00 C 19.14 111.25 16.55 107.76 15.00 103.50 C 13.90 100.47 13.00 95.97 13.00 93.50 C 13.00 91.03 13.45 86.97 14.00 84.50 C 14.65 81.56 16.21 78.79 18.50 76.50 C 20.43 74.58 24.02 72.33 26.50 71.50 Z" fill-rule="evenodd"/>
	<path fill="#FDFDFD" d="M 62.00 72.00 L 71.50 72.00 C 80.83 72.00 81.01 72.04 81.50 74.50 C 81.78 75.88 83.80 88.92 86.00 103.50 C 88.20 118.08 90.45 130.45 91.00 131.00 C 91.67 131.67 93.33 122.00 100.00 72.00 L 120.00 72.00 L 120.00 160.00 L 107.00 160.00 L 107.00 98.00 L 104.00 116.00 C 102.35 125.90 100.33 138.72 99.50 144.50 C 98.67 150.28 97.78 156.12 97.50 157.50 C 97.03 159.86 96.63 160.00 90.50 160.00 C 86.92 160.00 84.00 159.78 84.00 159.50 C 84.00 159.22 81.97 146.85 79.50 132.00 C 77.03 117.15 74.78 103.88 74.50 102.50 C 74.22 101.12 74.00 113.50 74.00 160.00 L 68.00 160.00 C 64.70 160.00 62.00 159.78 62.00 159.50 C 62.00 159.22 62.00 139.43 62.00 72.00 Z" fill-rule="evenodd"/>
	<path fill="#FDFDFD" d="M 130.00 72.00 L 144.00 72.00 C 157.20 72.00 158.23 72.14 162.00 74.50 C 164.20 75.88 167.12 78.80 168.50 81.00 C 170.75 84.61 171.00 86.03 171.00 95.50 C 171.00 104.00 170.62 106.76 169.00 110.00 C 167.90 112.20 166.10 114.67 165.00 115.50 C 163.02 116.98 163.03 117.02 165.50 119.00 C 166.88 120.10 168.68 122.58 169.50 124.50 C 170.54 126.93 171.00 131.50 171.00 139.50 C 171.00 145.82 171.45 153.03 173.00 160.00 L 159.00 159.00 L 158.00 144.00 C 157.07 130.00 156.83 128.83 154.50 126.50 C 152.67 124.67 150.93 124.00 144.00 124.00 L 144.00 160.00 L 137.00 160.00 C 133.15 160.00 130.00 159.78 130.00 159.50 C 130.00 159.22 130.00 139.43 130.00 72.00 Z M 144.00 84.00 C 144.00 104.15 144.00 110.22 144.00 110.50 C 144.00 110.78 146.25 111.00 149.00 111.00 C 152.83 111.00 154.35 110.53 155.50 109.00 C 156.59 107.55 157.00 104.39 157.00 97.50 C 157.00 90.39 156.62 87.62 155.50 86.50 C 154.68 85.67 151.75 84.78 149.00 84.50 L 144.00 84.00 Z" fill-rule="evenodd"/>
	<path fill="#FDFDFD" d="M 176.00 72.00 L 220.00 72.00 L 220.00 84.00 L 205.00 84.00 L 205.00 160.00 L 191.00 160.00 L 190.00 85.00 L 183.00 84.50 C 179.15 84.22 176.00 83.78 176.00 83.50 C 176.00 83.22 176.00 80.53 176.00 72.00 Z" fill-rule="evenodd"/>
	<path fill="#010101" d="M 144.00 84.00 L 149.00 84.50 C 151.75 84.78 154.68 85.67 155.50 86.50 C 156.62 87.62 157.00 90.39 157.00 97.50 C 157.00 104.39 156.59 107.55 155.50 109.00 C 154.35 110.53 152.83 111.00 149.00 111.00 C 146.25 111.00 144.00 110.78 144.00 110.50 C 144.00 110.22 144.00 104.15 144.00 84.00 Z" fill-rule="evenodd"/>
	<path fill="#F4F4F4" d="M 0.00 195.00 L 0.00 195.00 C 0.00 195.00 0.22 195.22 0.50 195.50 C 0.78 195.78 1.90 198.03 5.00 205.00 C 4.22 209.65 4.45 211.68 5.00 212.50 C 5.55 213.32 6.90 214.00 8.00 214.00 C 9.56 214.00 10.00 214.67 10.00 217.00 C 10.00 219.42 10.78 220.49 14.00 222.50 C 16.20 223.88 19.35 225.00 21.00 225.00 C 22.65 225.00 25.12 225.45 26.50 226.00 C 27.88 226.55 29.00 227.00 29.00 227.00 L 29.00 227.00 L 29.00 227.00 C 29.00 227.00 29.45 227.00 30.00 227.00 C 30.55 227.00 32.58 227.68 38.00 230.00 C 9.32 230.00 0.78 230.00 0.50 230.00 C 0.22 230.00 0.00 222.12 0.00 212.50 C 0.00 202.88 0.00 195.00 0.00 195.00 L 0.00 195.00 Z" fill-rule="evenodd"/>
	<path fill="#EEEEEE" d="M 230.00 201.00 C 230.00 222.70 230.00 229.22 230.00 229.50 C 230.00 229.78 222.12 230.00 212.50 230.00 C 202.88 230.00 195.00 230.00 195.00 230.00 L 195.00 230.00 L 195.00 230.00 C 195.00 230.00 197.70 228.88 201.00 227.50 C 204.30 226.12 209.03 223.65 211.50 222.00 C 213.97 220.35 217.80 216.97 220.00 214.50 C 222.20 212.03 225.35 207.97 230.00 201.00 Z" fill-rule="evenodd"/>
	<path fill="#DDDDDD" d="M 5.00 205.00 L 5.00 205.00 C 5.00 205.00 6.12 206.80 7.50 209.00 C 8.88 211.20 12.25 215.03 15.00 217.50 C 17.75 219.97 22.02 223.12 29.00 227.00 L 29.00 227.00 C 29.00 227.00 27.88 226.55 26.50 226.00 C 25.12 225.45 22.65 225.00 21.00 225.00 C 19.35 225.00 16.20 223.88 14.00 222.50 C 10.78 220.49 10.00 219.42 10.00 217.00 C 10.00 214.67 9.56 214.00 8.00 214.00 C 6.90 214.00 5.55 213.32 5.00 212.50 C 4.45 211.68 4.22 209.65 5.00 205.00 Z" fill-rule="evenodd"/>
</svg>
