<svg version="1.1" id="Layer_1" xmlns:x="ns_extend;" xmlns:i="ns_ai;" xmlns:graph="ns_graphs;" xmlns="http://www.w3.org/2000/svg" xmlns:xlink="http://www.w3.org/1999/xlink" x="0px" y="0px" viewBox="0 0 369.7 126" style="enable-background:new 0 0 369.7 126;" xml:space="preserve">
 <style type="text/css">
  .st0{fill:#F44E27;}
 </style>
 <metadata>
  <sfw xmlns="ns_sfw;">
   <slices>
   </slices>
   <sliceSourceBounds bottomLeftOrigin="true" height="126" width="369.7" x="14.9" y="-263.2">
   </sliceSourceBounds>
  </sfw>
 </metadata>
 <g>
  <path class="st0" d="M360,56.2c-7.4,0-13.1,5.7-14.9,10.3V56.2h-15.2v56.2H345V83.2c0-8.5,2.8-13.9,11.8-13.9h12.9V56.2H360z">
  </path>
  <path class="st0" d="M294.1,54.9c-16.3,0-29.3,13.2-29.3,29.3s13.2,29.3,29.3,29.3c16.3,0,29.3-13.2,29.3-29.3
		S310.4,54.9,294.1,54.9z M294.1,100.1c-8.7,0-15.9-7.1-15.9-15.9c0-8.7,7.1-15.9,15.9-15.9c8.7,0,15.9,7.1,15.9,15.9
		C310,93,303,100.1,294.1,100.1z">
  </path>
  <path class="st0" d="M258.4,42.6h-15.2v69.8h15.2V42.6z">
  </path>
  <path class="st0" d="M208.5,54.9c-6.6,0-14.5,3.9-17.3,8.2v-6.9h-15.1V126h15.2v-20.5c2.9,4.4,10.6,8.2,17.3,8.2
		c16.3,0,28.4-13.2,28.4-29.3C236.9,68.2,224.7,54.9,208.5,54.9z M207.5,100.1c-8.7,0-15.9-7.1-15.9-15.9c0-8.7,7.1-15.9,15.9-15.9
		c8.7,0,15.9,7.1,15.9,15.9C223.4,93,216.3,100.1,207.5,100.1z">
  </path>
  <path class="st0" d="M140.5,73.8l-17.5-17.5h-10.5v10.5L130,84.3l-17.5,17.6v10.5h10.5l17.5-17.6l17.6,17.6h10.5v-10.5L151,84.3
		l17.6-17.5V56.2h-10.5L140.5,73.8z">
  </path>
  <path class="st0" d="M17.7,85.3c-1.2-0.4-2.5-0.6-3.9-0.6C7.3,84.7,2,89.1,0.4,95.2C0.2,96.3,0,97.4,0,98.5v13.9h13.9
		c1.2,0,2.3-0.2,3.4-0.4c5.9-1.5,10.4-6.9,10.4-13.4c0-1.4-0.2-2.7-0.6-3.9C25.9,90.1,22.3,86.5,17.7,85.3z">
  </path>
  <path class="st0" d="M112.4,0C79.6,1.5,50.9,18.7,33.6,44.4C22,42.3,9.7,45.1,0,52.6v7.1c8.2,0,16.1,1.9,23,5.3
		c10.6,5.2,19.2,13.8,24.4,24.4c3.4,6.9,5.3,14.8,5.3,23h7.1c7.5-9.7,10.3-22,8.2-33.6C93.7,61.6,110.9,32.8,112.4,0z M62.3,37.6
		c0-6.9,5.7-12.6,12.6-12.6c6.9,0,12.6,5.7,12.6,12.6c0,6.9-5.7,12.6-12.6,12.6C67.9,50.2,62.3,44.5,62.3,37.6z">
  </path>
 </g>
</svg>